<?xml version="1.0" encoding="UTF-8" standalone="no"?>
<!-- Created with Inkscape (http://www.inkscape.org/) -->

<svg
   version="1.1"
   id="svg9"
   width="631.69873"
   height="800.00531"
   viewBox="0 0 631.69873 800.00531"
   xmlns="http://www.w3.org/2000/svg"
   xmlns:svg="http://www.w3.org/2000/svg">
  <defs
     id="defs13" />
  <g
     id="g17"
     transform="matrix(1.3333333,0,0,1.3333333,-84.150665,0)">
    <g
       id="g19">
      <path
         d="m 361.965,556.863 v -226.82 c 0,-1.203 -0.219,-2.398 -0.653,-3.523 L 343.824,281 v -65.539 c 0,-3.922 -2.304,-7.297 -5.629,-8.871 -0.402,-20.68 -2.269,-41.488 -5.578,-61.985 -3.769,-23.261 -9.457,-46.5 -16.902,-69.074 l -4.035,-12.23 c -1.672,-5.039 -6.36,-8.426 -11.672,-8.426 -5.313,0 -10.004,3.387 -11.676,8.434 l -4.035,12.226 c -14.086,42.703 -21.637,86.75 -22.492,131.063 -3.317,1.578 -5.617,4.949 -5.617,8.867 V 281 l -17.5,45.52 c -0.434,1.125 -0.657,2.32 -0.657,3.523 v 226.82 c 0,5.356 4.289,9.703 9.617,9.817 v 13.683 c -5.328,0.11 -9.617,4.457 -9.617,9.813 0,5.426 4.403,9.824 9.828,9.824 h 104.286 c 5.425,0 9.824,-4.398 9.824,-9.824 0,-5.356 -4.289,-9.703 -9.617,-9.813 V 566.68 c 5.328,-0.118 9.613,-4.461 9.613,-9.817 z M 300.004,90.984 c 5.687,18.649 10.125,37.704 13.215,56.762 3.07,19.008 4.847,38.301 5.301,57.488 h -37.04 c 0.903,-38.55 7.122,-76.894 18.524,-114.25 z M 275.84,225.289 h 48.336 v 48.086 H 275.84 Z m 56.863,354.645 h -65.406 v -13.243 h 65.406 z m 9.613,-32.895 H 257.68 V 339.871 h 46.242 c 5.426,0 9.824,-4.402 9.824,-9.828 0,-5.426 -4.398,-9.824 -9.824,-9.824 H 262.16 l 10.453,-27.196 h 54.782 l 10.449,27.196 h -6.438 c -5.426,0 -9.824,4.398 -9.824,9.824 0,5.426 4.398,9.828 9.824,9.828 h 10.91 z"
         style="fill:#000000;fill-opacity:1;fill-rule:nonzero;stroke:none"
         id="path21" />
      <path
         d="m 188.215,491.324 c 5.426,0 9.824,-4.398 9.824,-9.824 V 302.656 c 0,-1.207 -0.219,-2.402 -0.652,-3.527 l -19.414,-50.5 v -72.621 c 0,-4.149 -2.578,-7.688 -6.215,-9.129 -0.434,-22.887 -2.496,-45.906 -6.16,-68.559 C 161.453,72.691 155.18,47.059 146.957,22.133 L 142.5,8.621 C 140.797,3.465 136.004,0 130.578,0 c -5.43,0 -10.223,3.465 -11.922,8.625 l -4.457,13.504 c -15.554,47.148 -23.883,95.797 -24.804,144.75 -3.637,1.441 -6.211,4.98 -6.211,9.129 v 72.621 l -19.414,50.5 c -0.434,1.125 -0.657,2.32 -0.657,3.523 v 250.7 c 0,5.425 4.403,9.824 9.828,9.824 h 0.813 v 17.176 h -0.813 c -5.425,0 -9.828,4.398 -9.828,9.824 0,5.426 4.403,9.824 9.828,9.824 h 115.274 c 5.426,0 9.828,-4.398 9.828,-9.824 0,-5.426 -4.402,-9.824 -9.828,-9.824 h -0.813 v -17.176 h 0.813 c 5.426,0 9.828,-4.399 9.828,-9.824 v -45.286 c 0,-5.425 -4.402,-9.824 -9.828,-9.824 -5.426,0 -9.824,4.399 -9.824,9.824 v 35.461 H 82.766 v -231.05 h 95.625 V 481.5 c 0,5.426 4.398,9.824 9.824,9.824 z m -94.813,71.852 h 74.352 v 16.703 H 93.402 Z M 130.578,35.387 c 6.785,21.699 12.035,43.886 15.621,66.07 3.461,21.387 5.442,43.117 5.903,64.727 h -43.047 c 0.933,-44.168 8.16,-88.09 21.523,-130.797 z m -27.746,150.445 h 55.488 v 55.215 h -55.488 z m -15.59,106.996 12.352,-32.133 h 61.965 l 12.355,32.133 z"
         style="fill:#000000;fill-opacity:1;fill-rule:nonzero;stroke:none"
         id="path23" />
      <path
         d="m 527.059,563.176 c 5.425,0 9.828,-4.399 9.828,-9.824 V 376.391 c 0,-37.2 -30.266,-67.461 -67.465,-67.461 -37.192,0 -67.449,30.261 -67.449,67.461 v 29.078 c 0,5.426 4.398,9.824 9.824,9.824 5.426,0 9.828,-4.398 9.828,-9.824 v -19.254 h 95.613 V 543.527 H 421.625 V 433.613 c 0,-5.425 -4.402,-9.824 -9.828,-9.824 -5.426,0 -9.824,4.399 -9.824,9.824 v 119.742 c 0,5.426 4.398,9.825 9.824,9.825 h 0.801 v 17.172 h -0.801 c -5.426,0 -9.824,4.398 -9.824,9.824 0,5.426 4.398,9.828 9.824,9.828 h 115.262 c 5.425,0 9.828,-4.402 9.828,-9.828 0,-5.426 -4.403,-9.824 -9.828,-9.824 h -0.797 V 563.18 h 0.797 z M 422.641,366.57 c 4.543,-21.668 23.793,-37.992 46.781,-37.992 23,0 42.25,16.324 46.797,37.992 z m 83.972,213.309 h -74.367 v -16.703 h 74.367 z"
         style="fill:#000000;fill-opacity:1;fill-rule:nonzero;stroke:none"
         id="path25" />
    </g>
  </g>
</svg>
